<mxfile host="app.diagrams.net" modified="2024-05-20T16:37:01.935Z" agent="Mozilla/5.0 (Windows NT 10.0; Win64; x64) AppleWebKit/537.36 (KHTML, like Gecko) Chrome/124.0.0.0 Safari/537.36" etag="GOqO75j18tkS5dkV4nj_" version="24.4.4" type="device">
  <diagram id="XOVdtWOX3nKb8uHVq4pv" name="Page-1">
    <mxGraphModel dx="1500" dy="757" grid="1" gridSize="10" guides="1" tooltips="1" connect="1" arrows="1" fold="1" page="1" pageScale="1" pageWidth="1169" pageHeight="827" math="0" shadow="0">
      <root>
        <mxCell id="0" />
        <mxCell id="1" parent="0" />
        <mxCell id="9Tof4OVuHzAgOCZRV1dA-1" value="Meta Shoppers Website" style="swimlane;whiteSpace=wrap;html=1;" parent="1" vertex="1">
          <mxGeometry x="175" y="30" width="820" height="770" as="geometry" />
        </mxCell>
        <mxCell id="sPbOnHb9XtvcjBcLCdyi-3" value="اعتبارسنجی فروشنده" style="ellipse;whiteSpace=wrap;html=1;fontSize=22;" parent="9Tof4OVuHzAgOCZRV1dA-1" vertex="1">
          <mxGeometry x="55" y="60" width="140" height="70" as="geometry" />
        </mxCell>
        <mxCell id="sPbOnHb9XtvcjBcLCdyi-5" value="ورود به پنل کاربری" style="ellipse;whiteSpace=wrap;html=1;fontSize=22;" parent="9Tof4OVuHzAgOCZRV1dA-1" vertex="1">
          <mxGeometry x="355" y="50" width="140" height="70" as="geometry" />
        </mxCell>
        <mxCell id="sPbOnHb9XtvcjBcLCdyi-6" value="مدیریت فروشگاه‌ها" style="ellipse;whiteSpace=wrap;html=1;fontSize=22;" parent="9Tof4OVuHzAgOCZRV1dA-1" vertex="1">
          <mxGeometry x="155" y="180" width="140" height="70" as="geometry" />
        </mxCell>
        <mxCell id="sPbOnHb9XtvcjBcLCdyi-7" value="مدیریت کالاها" style="ellipse;whiteSpace=wrap;html=1;fontSize=22;" parent="9Tof4OVuHzAgOCZRV1dA-1" vertex="1">
          <mxGeometry x="155" y="260" width="140" height="70" as="geometry" />
        </mxCell>
        <mxCell id="sPbOnHb9XtvcjBcLCdyi-8" value="اعتبارسنجی خریدار" style="ellipse;whiteSpace=wrap;html=1;fontSize=22;" parent="9Tof4OVuHzAgOCZRV1dA-1" vertex="1">
          <mxGeometry x="615" y="60" width="140" height="70" as="geometry" />
        </mxCell>
        <mxCell id="sPbOnHb9XtvcjBcLCdyi-9" value="انتخاب کالا" style="ellipse;whiteSpace=wrap;html=1;fontSize=22;" parent="9Tof4OVuHzAgOCZRV1dA-1" vertex="1">
          <mxGeometry x="365" y="260" width="140" height="70" as="geometry" />
        </mxCell>
        <mxCell id="sPbOnHb9XtvcjBcLCdyi-10" value="مدیریت لیست آرزوها" style="ellipse;whiteSpace=wrap;html=1;fontSize=22;" parent="9Tof4OVuHzAgOCZRV1dA-1" vertex="1">
          <mxGeometry x="565" y="270" width="140" height="70" as="geometry" />
        </mxCell>
        <mxCell id="sPbOnHb9XtvcjBcLCdyi-11" value="ثبت نظر و امتیاز" style="ellipse;whiteSpace=wrap;html=1;fontSize=22;" parent="9Tof4OVuHzAgOCZRV1dA-1" vertex="1">
          <mxGeometry x="565" y="350" width="140" height="70" as="geometry" />
        </mxCell>
        <mxCell id="sPbOnHb9XtvcjBcLCdyi-12" value="گرفتن گزارش خرید" style="ellipse;whiteSpace=wrap;html=1;fontSize=22;" parent="9Tof4OVuHzAgOCZRV1dA-1" vertex="1">
          <mxGeometry x="545" y="440" width="140" height="70" as="geometry" />
        </mxCell>
        <mxCell id="sPbOnHb9XtvcjBcLCdyi-13" value="تولید فاکتورهای خرید" style="ellipse;whiteSpace=wrap;html=1;fontSize=22;" parent="9Tof4OVuHzAgOCZRV1dA-1" vertex="1">
          <mxGeometry x="355" y="400" width="140" height="70" as="geometry" />
        </mxCell>
        <mxCell id="sPbOnHb9XtvcjBcLCdyi-17" value="پیگیری سفارش" style="ellipse;whiteSpace=wrap;html=1;fontSize=22;" parent="9Tof4OVuHzAgOCZRV1dA-1" vertex="1">
          <mxGeometry x="635" y="500" width="140" height="70" as="geometry" />
        </mxCell>
        <mxCell id="sPbOnHb9XtvcjBcLCdyi-21" value="" style="endArrow=classicThin;html=1;rounded=0;exitX=1;exitY=0.5;exitDx=0;exitDy=0;entryX=0;entryY=0.5;entryDx=0;entryDy=0;endFill=1;strokeWidth=3;dashed=1;" parent="9Tof4OVuHzAgOCZRV1dA-1" source="sPbOnHb9XtvcjBcLCdyi-3" target="sPbOnHb9XtvcjBcLCdyi-5" edge="1">
          <mxGeometry width="50" height="50" relative="1" as="geometry">
            <mxPoint x="-70" y="125" as="sourcePoint" />
            <mxPoint x="65" y="105" as="targetPoint" />
          </mxGeometry>
        </mxCell>
        <mxCell id="sPbOnHb9XtvcjBcLCdyi-23" value="&amp;lt;&amp;lt;extend&amp;gt;&amp;gt;&lt;div style=&quot;font-size: 15px;&quot;&gt;نام کاربری و کلمه عبور معتبر باشند&lt;/div&gt;" style="edgeLabel;html=1;align=center;verticalAlign=middle;resizable=0;points=[];fontSize=15;" parent="sPbOnHb9XtvcjBcLCdyi-21" vertex="1" connectable="0">
          <mxGeometry x="0.2666" relative="1" as="geometry">
            <mxPoint x="-31" y="-39" as="offset" />
          </mxGeometry>
        </mxCell>
        <mxCell id="sPbOnHb9XtvcjBcLCdyi-24" value="" style="endArrow=classicThin;html=1;rounded=0;exitX=0;exitY=0.5;exitDx=0;exitDy=0;endFill=1;strokeWidth=3;dashed=1;" parent="9Tof4OVuHzAgOCZRV1dA-1" source="sPbOnHb9XtvcjBcLCdyi-8" target="sPbOnHb9XtvcjBcLCdyi-5" edge="1">
          <mxGeometry width="50" height="50" relative="1" as="geometry">
            <mxPoint x="205" y="105" as="sourcePoint" />
            <mxPoint x="495" y="90" as="targetPoint" />
          </mxGeometry>
        </mxCell>
        <mxCell id="sPbOnHb9XtvcjBcLCdyi-25" value="&amp;lt;&amp;lt;extend&amp;gt;&amp;gt;&lt;div style=&quot;font-size: 15px;&quot;&gt;نام کاربری و کلمه عبور معتبر باشند&lt;/div&gt;" style="edgeLabel;html=1;align=center;verticalAlign=middle;resizable=0;points=[];fontSize=15;" parent="sPbOnHb9XtvcjBcLCdyi-24" vertex="1" connectable="0">
          <mxGeometry x="0.2666" relative="1" as="geometry">
            <mxPoint x="25" y="-41" as="offset" />
          </mxGeometry>
        </mxCell>
        <mxCell id="sPbOnHb9XtvcjBcLCdyi-27" value="گرفتن گزارش فروش" style="ellipse;whiteSpace=wrap;html=1;fontSize=22;" parent="9Tof4OVuHzAgOCZRV1dA-1" vertex="1">
          <mxGeometry x="155" y="340" width="140" height="70" as="geometry" />
        </mxCell>
        <mxCell id="sPbOnHb9XtvcjBcLCdyi-31" value="نمایش کالاهای محبوب" style="ellipse;whiteSpace=wrap;html=1;fontSize=22;" parent="9Tof4OVuHzAgOCZRV1dA-1" vertex="1">
          <mxGeometry x="355" y="140" width="140" height="70" as="geometry" />
        </mxCell>
        <mxCell id="sPbOnHb9XtvcjBcLCdyi-41" value="محاسبه قیمت" style="ellipse;whiteSpace=wrap;html=1;fontSize=22;" parent="9Tof4OVuHzAgOCZRV1dA-1" vertex="1">
          <mxGeometry x="325" y="600" width="140" height="70" as="geometry" />
        </mxCell>
        <mxCell id="sPbOnHb9XtvcjBcLCdyi-42" value="" style="endArrow=classicThin;html=1;rounded=0;exitX=0.953;exitY=0.741;exitDx=0;exitDy=0;entryX=0;entryY=0.5;entryDx=0;entryDy=0;endFill=1;strokeWidth=3;dashed=1;exitPerimeter=0;" parent="9Tof4OVuHzAgOCZRV1dA-1" source="sPbOnHb9XtvcjBcLCdyi-13" target="sPbOnHb9XtvcjBcLCdyi-12" edge="1">
          <mxGeometry width="50" height="50" relative="1" as="geometry">
            <mxPoint x="-70" y="125" as="sourcePoint" />
            <mxPoint x="115" y="385" as="targetPoint" />
          </mxGeometry>
        </mxCell>
        <mxCell id="sPbOnHb9XtvcjBcLCdyi-43" value="&amp;lt;&amp;lt;include&amp;gt;&amp;gt;" style="edgeLabel;html=1;align=center;verticalAlign=middle;resizable=0;points=[];fontSize=17;" parent="sPbOnHb9XtvcjBcLCdyi-42" vertex="1" connectable="0">
          <mxGeometry x="0.4566" y="-4" relative="1" as="geometry">
            <mxPoint x="-35" y="32" as="offset" />
          </mxGeometry>
        </mxCell>
        <mxCell id="sPbOnHb9XtvcjBcLCdyi-16" value="ثبت سفارش" style="ellipse;whiteSpace=wrap;html=1;fontSize=22;" parent="9Tof4OVuHzAgOCZRV1dA-1" vertex="1">
          <mxGeometry x="675" y="610" width="140" height="70" as="geometry" />
        </mxCell>
        <mxCell id="sPbOnHb9XtvcjBcLCdyi-51" value="" style="endArrow=classicThin;html=1;rounded=0;exitX=0;exitY=0.5;exitDx=0;exitDy=0;entryX=1;entryY=1;entryDx=0;entryDy=0;endFill=1;strokeWidth=3;dashed=1;" parent="9Tof4OVuHzAgOCZRV1dA-1" source="sPbOnHb9XtvcjBcLCdyi-16" target="sPbOnHb9XtvcjBcLCdyi-41" edge="1">
          <mxGeometry width="50" height="50" relative="1" as="geometry">
            <mxPoint x="505" y="540" as="sourcePoint" />
            <mxPoint x="555" y="485" as="targetPoint" />
          </mxGeometry>
        </mxCell>
        <mxCell id="sPbOnHb9XtvcjBcLCdyi-52" value="&amp;lt;&amp;lt;include&amp;gt;&amp;gt;" style="edgeLabel;html=1;align=center;verticalAlign=middle;resizable=0;points=[];fontSize=17;" parent="sPbOnHb9XtvcjBcLCdyi-51" vertex="1" connectable="0">
          <mxGeometry x="0.4566" y="-4" relative="1" as="geometry">
            <mxPoint x="47" y="-16" as="offset" />
          </mxGeometry>
        </mxCell>
        <mxCell id="sPbOnHb9XtvcjBcLCdyi-53" value="محاسبه تخفیف" style="ellipse;whiteSpace=wrap;html=1;fontSize=22;" parent="9Tof4OVuHzAgOCZRV1dA-1" vertex="1">
          <mxGeometry x="355" y="690" width="140" height="70" as="geometry" />
        </mxCell>
        <mxCell id="sPbOnHb9XtvcjBcLCdyi-54" value="" style="endArrow=classicThin;html=1;rounded=0;endFill=1;strokeWidth=3;dashed=1;" parent="9Tof4OVuHzAgOCZRV1dA-1" source="sPbOnHb9XtvcjBcLCdyi-16" target="sPbOnHb9XtvcjBcLCdyi-53" edge="1">
          <mxGeometry width="50" height="50" relative="1" as="geometry">
            <mxPoint x="595" y="720" as="sourcePoint" />
            <mxPoint x="535" y="720" as="targetPoint" />
          </mxGeometry>
        </mxCell>
        <mxCell id="sPbOnHb9XtvcjBcLCdyi-55" value="&amp;lt;&amp;lt;extend&amp;gt;&amp;gt;&lt;div style=&quot;font-size: 15px;&quot;&gt;کوپن تخفیف معتبر باشد&lt;/div&gt;" style="edgeLabel;html=1;align=center;verticalAlign=middle;resizable=0;points=[];fontSize=15;" parent="sPbOnHb9XtvcjBcLCdyi-54" vertex="1" connectable="0">
          <mxGeometry x="0.2666" relative="1" as="geometry">
            <mxPoint x="48" y="28" as="offset" />
          </mxGeometry>
        </mxCell>
        <mxCell id="sPbOnHb9XtvcjBcLCdyi-61" value="تحویل کالاها" style="ellipse;whiteSpace=wrap;html=1;fontSize=22;" parent="9Tof4OVuHzAgOCZRV1dA-1" vertex="1">
          <mxGeometry x="105" y="420" width="140" height="70" as="geometry" />
        </mxCell>
        <mxCell id="sPbOnHb9XtvcjBcLCdyi-63" value="اعلام موجودی کالاها" style="ellipse;whiteSpace=wrap;html=1;fontSize=22;" parent="9Tof4OVuHzAgOCZRV1dA-1" vertex="1">
          <mxGeometry x="105" y="500" width="140" height="70" as="geometry" />
        </mxCell>
        <mxCell id="sPbOnHb9XtvcjBcLCdyi-65" value="اعزام وسیله نقلیه" style="ellipse;whiteSpace=wrap;html=1;fontSize=22;" parent="9Tof4OVuHzAgOCZRV1dA-1" vertex="1">
          <mxGeometry x="105" y="590" width="140" height="70" as="geometry" />
        </mxCell>
        <mxCell id="sPbOnHb9XtvcjBcLCdyi-67" value="به‌روزرسانی وضعیت سفارش" style="ellipse;whiteSpace=wrap;html=1;fontSize=22;" parent="9Tof4OVuHzAgOCZRV1dA-1" vertex="1">
          <mxGeometry x="105" y="670" width="140" height="70" as="geometry" />
        </mxCell>
        <mxCell id="VFShXLYgYUer66Sq02EX-1" value="جست و جوی کالا" style="ellipse;whiteSpace=wrap;html=1;fontSize=22;" parent="9Tof4OVuHzAgOCZRV1dA-1" vertex="1">
          <mxGeometry x="485" y="180" width="140" height="70" as="geometry" />
        </mxCell>
        <mxCell id="424zsobKd_O32BUdUNb--3" value="" style="endArrow=classicThin;html=1;rounded=0;exitX=0;exitY=0;exitDx=0;exitDy=0;entryX=1;entryY=0.5;entryDx=0;entryDy=0;endFill=1;strokeWidth=3;dashed=1;" edge="1" parent="9Tof4OVuHzAgOCZRV1dA-1" source="sPbOnHb9XtvcjBcLCdyi-16" target="sPbOnHb9XtvcjBcLCdyi-63">
          <mxGeometry width="50" height="50" relative="1" as="geometry">
            <mxPoint x="685" y="655" as="sourcePoint" />
            <mxPoint x="454" y="670" as="targetPoint" />
          </mxGeometry>
        </mxCell>
        <mxCell id="424zsobKd_O32BUdUNb--4" value="&amp;lt;&amp;lt;include&amp;gt;&amp;gt;" style="edgeLabel;html=1;align=center;verticalAlign=middle;resizable=0;points=[];fontSize=17;" vertex="1" connectable="0" parent="424zsobKd_O32BUdUNb--3">
          <mxGeometry x="0.4566" y="-4" relative="1" as="geometry">
            <mxPoint x="47" y="-16" as="offset" />
          </mxGeometry>
        </mxCell>
        <mxCell id="sPbOnHb9XtvcjBcLCdyi-1" value="فروشنده" style="shape=umlActor;verticalLabelPosition=bottom;verticalAlign=top;html=1;outlineConnect=0;fontSize=27;fontStyle=1" parent="1" vertex="1">
          <mxGeometry x="60" y="100" width="70" height="130" as="geometry" />
        </mxCell>
        <mxCell id="sPbOnHb9XtvcjBcLCdyi-2" value="خریدار" style="shape=umlActor;verticalLabelPosition=bottom;verticalAlign=top;html=1;outlineConnect=0;fontSize=27;fontStyle=1" parent="1" vertex="1">
          <mxGeometry x="1050" y="100" width="70" height="130" as="geometry" />
        </mxCell>
        <mxCell id="sPbOnHb9XtvcjBcLCdyi-18" value="" style="endArrow=classicThin;html=1;rounded=0;exitX=0.5;exitY=0.5;exitDx=0;exitDy=0;exitPerimeter=0;entryX=0;entryY=0.5;entryDx=0;entryDy=0;endFill=1;strokeWidth=3;" parent="1" source="sPbOnHb9XtvcjBcLCdyi-1" target="sPbOnHb9XtvcjBcLCdyi-3" edge="1">
          <mxGeometry width="50" height="50" relative="1" as="geometry">
            <mxPoint x="80" y="380" as="sourcePoint" />
            <mxPoint x="130" y="330" as="targetPoint" />
          </mxGeometry>
        </mxCell>
        <mxCell id="sPbOnHb9XtvcjBcLCdyi-28" value="" style="endArrow=classicThin;html=1;rounded=0;exitX=0.5;exitY=0.5;exitDx=0;exitDy=0;exitPerimeter=0;entryX=0;entryY=0.5;entryDx=0;entryDy=0;endFill=1;strokeWidth=3;" parent="1" source="sPbOnHb9XtvcjBcLCdyi-1" target="sPbOnHb9XtvcjBcLCdyi-6" edge="1">
          <mxGeometry width="50" height="50" relative="1" as="geometry">
            <mxPoint x="105" y="175" as="sourcePoint" />
            <mxPoint x="240" y="155" as="targetPoint" />
          </mxGeometry>
        </mxCell>
        <mxCell id="sPbOnHb9XtvcjBcLCdyi-29" value="" style="endArrow=classicThin;html=1;rounded=0;exitX=0.5;exitY=0.5;exitDx=0;exitDy=0;exitPerimeter=0;entryX=0;entryY=0.5;entryDx=0;entryDy=0;endFill=1;strokeWidth=3;" parent="1" source="sPbOnHb9XtvcjBcLCdyi-1" target="sPbOnHb9XtvcjBcLCdyi-7" edge="1">
          <mxGeometry width="50" height="50" relative="1" as="geometry">
            <mxPoint x="105" y="175" as="sourcePoint" />
            <mxPoint x="290" y="275" as="targetPoint" />
          </mxGeometry>
        </mxCell>
        <mxCell id="sPbOnHb9XtvcjBcLCdyi-30" value="" style="endArrow=classicThin;html=1;rounded=0;exitX=0.5;exitY=0.5;exitDx=0;exitDy=0;exitPerimeter=0;entryX=0;entryY=0.5;entryDx=0;entryDy=0;endFill=1;strokeWidth=3;" parent="1" source="sPbOnHb9XtvcjBcLCdyi-1" target="sPbOnHb9XtvcjBcLCdyi-27" edge="1">
          <mxGeometry width="50" height="50" relative="1" as="geometry">
            <mxPoint x="105" y="175" as="sourcePoint" />
            <mxPoint x="290" y="355" as="targetPoint" />
          </mxGeometry>
        </mxCell>
        <mxCell id="sPbOnHb9XtvcjBcLCdyi-33" value="" style="endArrow=classicThin;html=1;rounded=0;exitX=0;exitY=0.5;exitDx=0;exitDy=0;entryX=0.5;entryY=0.5;entryDx=0;entryDy=0;endFill=1;strokeWidth=3;entryPerimeter=0;" parent="1" source="sPbOnHb9XtvcjBcLCdyi-31" target="sPbOnHb9XtvcjBcLCdyi-1" edge="1">
          <mxGeometry width="50" height="50" relative="1" as="geometry">
            <mxPoint x="105" y="175" as="sourcePoint" />
            <mxPoint x="290" y="275" as="targetPoint" />
          </mxGeometry>
        </mxCell>
        <mxCell id="sPbOnHb9XtvcjBcLCdyi-34" value="" style="endArrow=classicThin;html=1;rounded=0;exitX=1;exitY=0.5;exitDx=0;exitDy=0;entryX=0.5;entryY=0.5;entryDx=0;entryDy=0;endFill=1;strokeWidth=3;entryPerimeter=0;" parent="1" source="sPbOnHb9XtvcjBcLCdyi-31" target="sPbOnHb9XtvcjBcLCdyi-2" edge="1">
          <mxGeometry width="50" height="50" relative="1" as="geometry">
            <mxPoint x="540" y="235" as="sourcePoint" />
            <mxPoint x="105" y="175" as="targetPoint" />
          </mxGeometry>
        </mxCell>
        <mxCell id="sPbOnHb9XtvcjBcLCdyi-44" value="" style="endArrow=classicThin;html=1;rounded=0;entryX=1;entryY=0.5;entryDx=0;entryDy=0;endFill=1;strokeWidth=3;" parent="1" source="sPbOnHb9XtvcjBcLCdyi-2" target="sPbOnHb9XtvcjBcLCdyi-9" edge="1">
          <mxGeometry width="50" height="50" relative="1" as="geometry">
            <mxPoint x="105" y="175" as="sourcePoint" />
            <mxPoint x="290" y="275" as="targetPoint" />
          </mxGeometry>
        </mxCell>
        <mxCell id="sPbOnHb9XtvcjBcLCdyi-45" value="" style="endArrow=classicThin;html=1;rounded=0;entryX=1;entryY=0.5;entryDx=0;entryDy=0;endFill=1;strokeWidth=3;" parent="1" source="sPbOnHb9XtvcjBcLCdyi-2" target="sPbOnHb9XtvcjBcLCdyi-10" edge="1">
          <mxGeometry width="50" height="50" relative="1" as="geometry">
            <mxPoint x="1060" y="192" as="sourcePoint" />
            <mxPoint x="890" y="275" as="targetPoint" />
          </mxGeometry>
        </mxCell>
        <mxCell id="sPbOnHb9XtvcjBcLCdyi-46" value="" style="endArrow=classicThin;html=1;rounded=0;entryX=1;entryY=0.5;entryDx=0;entryDy=0;endFill=1;strokeWidth=3;" parent="1" source="sPbOnHb9XtvcjBcLCdyi-2" target="sPbOnHb9XtvcjBcLCdyi-11" edge="1">
          <mxGeometry width="50" height="50" relative="1" as="geometry">
            <mxPoint x="1050" y="200" as="sourcePoint" />
            <mxPoint x="890" y="365" as="targetPoint" />
          </mxGeometry>
        </mxCell>
        <mxCell id="sPbOnHb9XtvcjBcLCdyi-47" value="" style="endArrow=classicThin;html=1;rounded=0;entryX=1;entryY=0.5;entryDx=0;entryDy=0;endFill=1;strokeWidth=3;exitX=0;exitY=1;exitDx=0;exitDy=0;exitPerimeter=0;" parent="1" source="sPbOnHb9XtvcjBcLCdyi-2" target="sPbOnHb9XtvcjBcLCdyi-12" edge="1">
          <mxGeometry width="50" height="50" relative="1" as="geometry">
            <mxPoint x="1050" y="200" as="sourcePoint" />
            <mxPoint x="890" y="459" as="targetPoint" />
          </mxGeometry>
        </mxCell>
        <mxCell id="sPbOnHb9XtvcjBcLCdyi-48" value="" style="endArrow=classicThin;html=1;rounded=0;endFill=1;strokeWidth=3;exitX=1;exitY=1;exitDx=0;exitDy=0;exitPerimeter=0;" parent="1" source="sPbOnHb9XtvcjBcLCdyi-2" target="sPbOnHb9XtvcjBcLCdyi-16" edge="1">
          <mxGeometry width="50" height="50" relative="1" as="geometry">
            <mxPoint x="1060" y="240" as="sourcePoint" />
            <mxPoint x="890" y="545" as="targetPoint" />
          </mxGeometry>
        </mxCell>
        <mxCell id="sPbOnHb9XtvcjBcLCdyi-49" value="" style="endArrow=classicThin;html=1;rounded=0;endFill=1;strokeWidth=3;entryX=0.5;entryY=0;entryDx=0;entryDy=0;" parent="1" source="sPbOnHb9XtvcjBcLCdyi-2" target="sPbOnHb9XtvcjBcLCdyi-17" edge="1">
          <mxGeometry width="50" height="50" relative="1" as="geometry">
            <mxPoint x="1130" y="240" as="sourcePoint" />
            <mxPoint x="775" y="702" as="targetPoint" />
          </mxGeometry>
        </mxCell>
        <mxCell id="sPbOnHb9XtvcjBcLCdyi-56" value="منتقد" style="shape=umlActor;verticalLabelPosition=bottom;verticalAlign=top;html=1;outlineConnect=0;fontSize=27;fontStyle=1" parent="1" vertex="1">
          <mxGeometry x="1050" y="560" width="70" height="130" as="geometry" />
        </mxCell>
        <mxCell id="sPbOnHb9XtvcjBcLCdyi-57" value="" style="endArrow=classicThin;html=1;rounded=0;entryX=0.971;entryY=0.643;entryDx=0;entryDy=0;endFill=1;strokeWidth=3;exitX=0;exitY=0.3333333333333333;exitDx=0;exitDy=0;exitPerimeter=0;entryPerimeter=0;" parent="1" source="sPbOnHb9XtvcjBcLCdyi-56" target="sPbOnHb9XtvcjBcLCdyi-11" edge="1">
          <mxGeometry width="50" height="50" relative="1" as="geometry">
            <mxPoint x="1060" y="221" as="sourcePoint" />
            <mxPoint x="890" y="445" as="targetPoint" />
          </mxGeometry>
        </mxCell>
        <mxCell id="sPbOnHb9XtvcjBcLCdyi-58" value="انباردار" style="shape=umlActor;verticalLabelPosition=bottom;verticalAlign=top;html=1;outlineConnect=0;fontSize=27;fontStyle=1" parent="1" vertex="1">
          <mxGeometry x="60" y="414" width="70" height="130" as="geometry" />
        </mxCell>
        <mxCell id="sPbOnHb9XtvcjBcLCdyi-62" value="" style="endArrow=classicThin;html=1;rounded=0;exitX=1;exitY=0.3333333333333333;exitDx=0;exitDy=0;exitPerimeter=0;entryX=0;entryY=0.5;entryDx=0;entryDy=0;endFill=1;strokeWidth=3;" parent="1" source="sPbOnHb9XtvcjBcLCdyi-58" target="sPbOnHb9XtvcjBcLCdyi-61" edge="1">
          <mxGeometry width="50" height="50" relative="1" as="geometry">
            <mxPoint x="105" y="175" as="sourcePoint" />
            <mxPoint x="290" y="435" as="targetPoint" />
          </mxGeometry>
        </mxCell>
        <mxCell id="sPbOnHb9XtvcjBcLCdyi-64" value="" style="endArrow=classicThin;html=1;rounded=0;exitX=1;exitY=0.3333333333333333;exitDx=0;exitDy=0;exitPerimeter=0;entryX=0;entryY=0.5;entryDx=0;entryDy=0;endFill=1;strokeWidth=3;" parent="1" source="sPbOnHb9XtvcjBcLCdyi-58" target="sPbOnHb9XtvcjBcLCdyi-63" edge="1">
          <mxGeometry width="50" height="50" relative="1" as="geometry">
            <mxPoint x="140" y="467" as="sourcePoint" />
            <mxPoint x="290" y="545" as="targetPoint" />
          </mxGeometry>
        </mxCell>
        <mxCell id="sPbOnHb9XtvcjBcLCdyi-66" value="" style="endArrow=classicThin;html=1;rounded=0;exitX=1;exitY=0.3333333333333333;exitDx=0;exitDy=0;exitPerimeter=0;entryX=0;entryY=0.5;entryDx=0;entryDy=0;endFill=1;strokeWidth=3;" parent="1" source="sPbOnHb9XtvcjBcLCdyi-58" target="sPbOnHb9XtvcjBcLCdyi-65" edge="1">
          <mxGeometry width="50" height="50" relative="1" as="geometry">
            <mxPoint x="140" y="467" as="sourcePoint" />
            <mxPoint x="290" y="625" as="targetPoint" />
          </mxGeometry>
        </mxCell>
        <mxCell id="sPbOnHb9XtvcjBcLCdyi-68" value="" style="endArrow=classicThin;html=1;rounded=0;exitX=1;exitY=0.3333333333333333;exitDx=0;exitDy=0;exitPerimeter=0;entryX=0;entryY=0.5;entryDx=0;entryDy=0;endFill=1;strokeWidth=3;" parent="1" source="sPbOnHb9XtvcjBcLCdyi-58" target="sPbOnHb9XtvcjBcLCdyi-67" edge="1">
          <mxGeometry width="50" height="50" relative="1" as="geometry">
            <mxPoint x="140" y="467" as="sourcePoint" />
            <mxPoint x="290" y="685" as="targetPoint" />
          </mxGeometry>
        </mxCell>
        <mxCell id="VFShXLYgYUer66Sq02EX-2" value="" style="endArrow=classicThin;html=1;rounded=0;entryX=1;entryY=0.5;entryDx=0;entryDy=0;endFill=1;strokeWidth=3;exitX=0;exitY=0.3333333333333333;exitDx=0;exitDy=0;exitPerimeter=0;" parent="1" source="sPbOnHb9XtvcjBcLCdyi-2" target="VFShXLYgYUer66Sq02EX-1" edge="1">
          <mxGeometry width="50" height="50" relative="1" as="geometry">
            <mxPoint x="1040" y="140" as="sourcePoint" />
            <mxPoint x="690" y="325" as="targetPoint" />
          </mxGeometry>
        </mxCell>
        <mxCell id="VFShXLYgYUer66Sq02EX-3" value="" style="endArrow=classicThin;html=1;rounded=0;entryX=1;entryY=0.5;entryDx=0;entryDy=0;endFill=1;strokeWidth=3;exitX=0;exitY=0.3333333333333333;exitDx=0;exitDy=0;exitPerimeter=0;" parent="1" source="sPbOnHb9XtvcjBcLCdyi-2" target="sPbOnHb9XtvcjBcLCdyi-8" edge="1">
          <mxGeometry width="50" height="50" relative="1" as="geometry">
            <mxPoint x="1060" y="153" as="sourcePoint" />
            <mxPoint x="810" y="255" as="targetPoint" />
          </mxGeometry>
        </mxCell>
      </root>
    </mxGraphModel>
  </diagram>
</mxfile>
